<?xml version="1.0" encoding="UTF-8" standalone="no"?>
<svg
   xmlns:dc="http://purl.org/dc/elements/1.1/"
   xmlns:cc="http://creativecommons.org/ns#"
   xmlns:rdf="http://www.w3.org/1999/02/22-rdf-syntax-ns#"
   xmlns:svg="http://www.w3.org/2000/svg"
   xmlns="http://www.w3.org/2000/svg"
   id="svg37"
   version="1.1"
   viewBox="0 0 210 297"
   height="297mm"
   width="210mm">
  <defs
     id="defs31">
    <filter
       height="1.0471668"
       y="-0.023583408"
       width="1.1520581"
       x="-0.076029072"
       id="filter4653"
       style="color-interpolation-filters:sRGB">
      <feGaussianBlur
         id="feGaussianBlur4655"
         stdDeviation="1.3952522" />
    </filter>
    <filter
       height="1.0435227"
       y="-0.021761363"
       width="1.208278"
       x="-0.104139"
       id="filter4657"
       style="color-interpolation-filters:sRGB">
      <feGaussianBlur
         id="feGaussianBlur4659"
         stdDeviation="1.1464162" />
    </filter>
    <filter
       height="1.0443529"
       y="-0.02217646"
       width="1.1911553"
       x="-0.095577664"
       id="filter4661"
       style="color-interpolation-filters:sRGB">
      <feGaussianBlur
         id="feGaussianBlur4663"
         stdDeviation="1.3211452" />
    </filter>
    <filter
       height="1.0831566"
       y="-0.041578281"
       width="1.2154635"
       x="-0.10773174"
       id="filter4665"
       style="color-interpolation-filters:sRGB">
      <feGaussianBlur
         id="feGaussianBlur4667"
         stdDeviation="1.4386307" />
    </filter>
  </defs>
  <metadata
     id="metadata34">
    <rdf:RDF>
      <cc:Work
         rdf:about="">
        <dc:format>image/svg+xml</dc:format>
        <dc:type
           rdf:resource="http://purl.org/dc/dcmitype/StillImage" />
        <dc:title></dc:title>
      </cc:Work>
    </rdf:RDF>
  </metadata>
  <g
     id="layer1">
    <path
       transform="matrix(0.99748359,0,0,1.7283133,0.52213338,-44.877368)"
       d="m 21.809014,-7.0515265 c 3.844696,4.588138 7.378974,9.3655992 10.543192,14.4465472 2.244291,4.1399983 4.767744,8.5975393 4.777716,13.4678613 0.0066,3.24887 -0.656645,4.465755 -1.638202,7.571937 -0.658426,1.422323 -1.260737,2.871994 -1.975278,4.26697 -2.597079,5.070202 -5.73936,9.857293 -8.462441,14.860135 -3.101544,5.698156 -2.976725,5.675648 -5.741362,11.61139 -3.516524,8.347112 -1.778673,4.132553 -5.210971,12.644736 0,0 -9.0208742,4.171704 -9.0208742,4.171704 v 0 c 3.3839177,-8.513958 1.6746231,-4.293928 5.1258922,-12.6609 2.683601,-5.907711 2.600628,-5.97414 5.616843,-11.642153 2.632273,-4.946515 5.665365,-9.684895 8.224719,-14.668473 0.689073,-1.341761 1.27535,-2.733871 1.913022,-4.100806 0.968899,-2.862691 1.644684,-4.097383 1.717082,-7.106476 0.113761,-4.728306 -2.276649,-9.08968 -4.417879,-13.12318 -0.713566,-1.132905 -1.38891,-2.290806 -2.140701,-3.3987153 -2.60164,-3.8340178 -5.731462,-7.2592162 -8.943483,-10.583275 0,0 9.632725,-5.7573022 9.632725,-5.7573022 z"
       id="path41"
       style="fill:#00ffff;fill-opacity:1;stroke-width:0.26458332;filter:url(#filter4665)" />
    <path
       d="m 63.675547,-80.973446 c -1.614953,3.706959 -3.41842,7.439263 -4.424506,11.375656 -0.235963,0.923226 -0.361233,1.871258 -0.54185,2.806887 -0.05063,1.034543 -0.189495,2.068532 -0.151879,3.10363 0.258008,7.099894 3.997722,15.245257 6.54159,21.819868 3.21859,8.893553 6.798617,17.741389 8.853768,27.004764 0.378282,1.705059 0.615323,3.438414 0.922983,5.1576212 1.185431,8.097273 0.286686,16.2307 -1.970601,24.0615518 -0.493596,1.712348 -1.098238,3.39072 -1.647357,5.086077 -2.670013,7.415159 -5.924843,14.594647 -9.103309,21.799697 0,0 -9.210172,4.21929 -9.210172,4.21929 v 0 c 3.171758,-7.14626 6.39587,-14.27639 9.024344,-21.64707 0.540676,-1.666539 1.132996,-3.317198 1.622031,-4.999617 2.238989,-7.702756 3.205247,-15.7060578 2.201119,-23.6961708 -0.276937,-1.703638 -0.479785,-3.420988 -0.830813,-5.110916 -1.922423,-9.2549612 -5.535282,-18.0568492 -8.826412,-26.8772582 -0.374899,-0.943497 -3.438261,-8.636571 -3.82887,-9.683044 -1.475362,-3.952593 -2.97034,-8.059395 -3.295957,-12.305955 -0.08203,-1.069786 0.02492,-2.145707 0.03738,-3.218561 0.153914,-0.974251 0.24297,-1.960987 0.461738,-2.922754 0.888177,-3.904689 2.754918,-7.545775 4.020852,-11.327727 0,0 10.145924,-4.645969 10.145924,-4.645969 z"
       id="path43"
       style="fill:#fc00fc;stroke-width:0.26458332;fill-opacity:1;filter:url(#filter4657)" />
    <path
       d="m 119.25871,-113.40292 c -4.23638,3.702 -7.88221,8.2003 -10.56728,13.15482 -0.79152,1.460523 -1.43871,2.994768 -2.15806,4.49215 -3.49055,9.005991 -5.22519,18.640107 -4.80361,28.306738 0.0941,2.157172 0.37061,4.302511 0.55592,6.453767 1.04789,8.934037 3.1151,17.751422 7.24723,25.796332 1.9115,3.721552 6.21474,10.490266 8.38587,13.988944 5.9244,9.929386 12.94998,19.5692533 16.61501,30.6620233 0.52894,1.6009197 0.8709,3.2576797 1.30636,4.8865197 0.91719,6.35055 0.6474,3.17965 0.82355,9.5115 0,0 -9.25166,4.73708 -9.25166,4.73708 v 0 c -0.0724,-6.20641 0.13998,-3.09457 -0.65145,-9.33451 -0.38687,-1.61307 -0.68391,-3.25037 -1.16061,-4.83921 -3.34326,-11.1430297 -10.08003,-20.9144897 -16.02044,-30.768987 -1.43303,-2.269762 -7.33958,-11.530523 -8.65569,-13.983832 -4.33208,-8.075205 -6.40906,-16.989687 -7.52597,-26.023763 -0.53159,-5.40041 -0.90968,-7.394345 -0.73465,-12.790217 0.24722,-7.6219 1.94864,-15.143787 4.47017,-22.3149 0.67391,-1.515877 1.27535,-3.066087 2.02171,-4.54763 2.48312,-4.929025 5.94695,-9.304385 9.76805,-13.255515 0,0 10.33555,-4.13131 10.33555,-4.13131 z"
       id="path45"
       style="fill:#ecec00;stroke-width:0.26458332;fill-opacity:1;filter:url(#filter4653)" />
    <path
       d="m 191.1734,-64.996141 c 1.4546,3.772376 3.39296,7.50937 3.71169,11.609117 0.10069,1.295097 0.007,2.598 0.0103,3.897 -1.00476,12.646964 -6.91766,24.083793 -12.09968,35.435916 -4.24083,9.691372 -9.19118,19.397643 -11.15092,29.899067 -0.33464,1.793213 -0.45739,3.619555 -0.68609,5.429334 -0.23772,5.503926 0.27911,11.012446 1.50245,16.384096 1.26362,5.5485 3.36983,10.86409 5.34074,16.18452 2.35343,6.74341 5.70975,13.01496 9.10913,19.26618 0,0 -8.47589,4.87289 -8.47589,4.87289 v 0 c -3.50728,-6.23391 -7.00768,-12.47903 -9.4829,-19.21858 -1.52018,-3.92737 -2.7527,-6.90639 -4.00028,-10.91004 -2.22596,-7.14334 -3.43326,-14.55074 -3.15523,-22.047904 0.21049,-1.847339 0.30385,-3.711816 0.63147,-5.542018 0.63595,-3.552632 1.94761,-7.558315 3.17593,-10.929832 2.39669,-6.578422 5.31585,-12.953351 8.25187,-19.302843 5.02204,-11.11372 10.79374,-22.331876 11.62303,-34.71205 -0.0197,-1.224814 0.0486,-2.454202 -0.059,-3.674442 -0.3462,-3.927412 -2.14876,-7.607177 -3.94147,-11.048848 0,0 9.69484,-5.591563 9.69484,-5.591563 z"
       id="path47"
       style="fill:#000000;stroke-width:0.26458332;filter:url(#filter4661)" />
  </g>
</svg>
